<?xml version="1.0" encoding="UTF-8"?>
<svg width="512" height="512" version="1.1" viewBox="0 0 512 512" xmlns="http://www.w3.org/2000/svg">
 <path d="m280.07 311.62v-67.482h-13.044v-27.787h52.927c14.719 0 26.652-11.933 26.652-26.652h-79.579v-27.409h79.202c14.72 0 26.652-11.932 26.652-26.652h-105.85v-27.219h-26.211v27.219h-105.86c0 14.72 11.933 26.652 26.652 26.652h79.203v27.409h-79.579c0 14.719 11.932 26.652 26.652 26.652h52.927v27.787h-13.042v67.482" fill="#BAC3FF"/>
 <path d="m261.93 330.81s-10.807 13.648-34.406 27.272c-22.175 12.801-53.831 17.865-53.831 17.865 1.226 14.775 15.01 25.157 29.276 21.121 13.031-3.687 28.221-8.808 39.379-15.053 24.45-13.686 38.442-30.292 38.442-30.292l-18.86-20.913z" fill="#BAC3FF"/>
 <path d="m215.43 244.17h-28.351l-13.786 13.297-13.784-13.297-53.299-0.568v0.377c0 14.772 11.975 26.747 26.747 26.747 0 0 0.327 28.365-11.606 60.179-8.99 23.973-27.924 47.97-27.924 47.97 10.712 10.712 28.39 9.38 36.499-3.415 7.418-11.707 15.518-25.848 19.882-37.817 9.737-26.698 9.701-66.898 9.701-66.898l13.784 13.501 13.786-12.833s0.931 26.471-1.24 37.543c-4.859 24.765-14.354 40.248-14.354 40.248 12.616 7.284 28.776 2.617 33.827-11.048 2.614-7.073 5.059-14.942 6.459-22.538 4.327-23.47 3.659-71.448 3.659-71.448z" fill="#fff"/>
 <path d="m292.05 244.17h107.06c0 14.678-11.879 26.586-26.557 26.623l-35.193 0.087v17.109h17.376v20.45h-15.239s0.484 6.631 2.123 12.747c1.994 7.449 4.703 12.727 4.703 12.727l47.842-22.802c6.309 12.544 1.074 27.823-11.601 33.864l-24.747 11.793s5.11 8.241 11.566 15.964c5.863 7.012 12.751 13.495 12.751 13.495l-1.218 1.218c-9.459 9.46-25.032 10.508-33.448 0.108-7.79-9.631-12.691-19.804-12.691-19.804l-15.087 7.199-11.494-22.855 15.084-7.199s-8.384-20.562-10.628-36.161c-2.29-15.9-2.025-38.006-2.025-38.006h-18.579v-26.557z" fill="#fff"/>
</svg>
